<svg width="512" height="512" viewBox="0 0 512 512" fill="none" xmlns="http://www.w3.org/2000/svg">
  <defs>
    <linearGradient id="hair" x1="120" y1="70" x2="370" y2="380" gradientUnits="userSpaceOnUse">
      <stop stop-color="#18214F"/>
      <stop offset="1" stop-color="#0A102F"/>
    </linearGradient>
    <linearGradient id="robe" x1="170" y1="280" x2="350" y2="470" gradientUnits="userSpaceOnUse">
      <stop stop-color="#344B9F"/>
      <stop offset="1" stop-color="#1B2E68"/>
    </linearGradient>
  </defs>
  <path d="M128 214C128 124 183 78 256 78C329 78 384 124 384 214V310H128V214Z" fill="url(#hair)"/>
  <ellipse cx="256" cy="220" rx="95" ry="108" fill="#F6E7DF"/>
  <path d="M168 220C168 152 205 109 256 109C307 109 344 152 344 220V244C344 312 307 355 256 355C205 355 168 312 168 244V220Z" fill="#F8EAE3"/>
  <path d="M187 208L232 198" stroke="#211730" stroke-width="8" stroke-linecap="round"/>
  <path d="M325 208L280 198" stroke="#211730" stroke-width="8" stroke-linecap="round"/>
  <ellipse cx="222" cy="232" rx="11" ry="8" fill="#161327"/>
  <ellipse cx="290" cy="232" rx="11" ry="8" fill="#161327"/>
  <path d="M234 280H278" stroke="#925F68" stroke-width="6" stroke-linecap="round"/>
  <path d="M170 402C170 340 208 308 256 308C304 308 342 340 342 402V470H170V402Z" fill="url(#robe)"/>
  <path d="M205 343C220 356 237 362 256 362C275 362 292 356 307 343" stroke="#C4C9F2" stroke-opacity="0.6" stroke-width="5"/>
</svg>