<svg width="512" height="512" viewBox="0 0 512 512" fill="none" xmlns="http://www.w3.org/2000/svg">
  <defs>
    <linearGradient id="hair" x1="120" y1="70" x2="370" y2="380" gradientUnits="userSpaceOnUse">
      <stop stop-color="#1E2658"/>
      <stop offset="1" stop-color="#0F143C"/>
    </linearGradient>
    <linearGradient id="robe" x1="170" y1="280" x2="350" y2="470" gradientUnits="userSpaceOnUse">
      <stop stop-color="#415AC0"/>
      <stop offset="1" stop-color="#243A80"/>
    </linearGradient>
  </defs>
  <path d="M128 214C128 124 183 78 256 78C329 78 384 124 384 214V310H128V214Z" fill="url(#hair)"/>
  <ellipse cx="256" cy="220" rx="95" ry="108" fill="#F6E7DF"/>
  <path d="M168 220C168 152 205 109 256 109C307 109 344 152 344 220V244C344 312 307 355 256 355C205 355 168 312 168 244V220Z" fill="#F8EAE3"/>
  <path d="M191 208C203 196 215 191 232 191" stroke="#2B1F35" stroke-width="8" stroke-linecap="round"/>
  <path d="M321 212C309 200 297 195 280 195" stroke="#2B1F35" stroke-width="8" stroke-linecap="round"/>
  <ellipse cx="222" cy="235" rx="10" ry="8" fill="#19152D"/>
  <ellipse cx="290" cy="235" rx="10" ry="8" fill="#19152D"/>
  <path d="M226 279C239 287 273 287 286 279" stroke="#A56A7A" stroke-width="6" stroke-linecap="round"/>
  <path d="M170 402C170 340 208 308 256 308C304 308 342 340 342 402V470H170V402Z" fill="url(#robe)"/>
  <path d="M143 290C160 274 188 274 205 290" stroke="#86B8FF" stroke-width="6" stroke-linecap="round"/>
  <circle cx="140" cy="296" r="8" fill="#86B8FF"/>
</svg>