<svg width="256" height="256" viewBox="0 0 256 256" fill="none" xmlns="http://www.w3.org/2000/svg">
  <defs>
    <linearGradient id="g1" x1="72" y1="36" x2="188" y2="214" gradientUnits="userSpaceOnUse">
      <stop stop-color="#FBE8B0" stop-opacity="0.92"/>
      <stop offset="1" stop-color="#C8A25B" stop-opacity="0.72"/>
    </linearGradient>
    <radialGradient id="iris" cx="0" cy="0" r="1" gradientUnits="userSpaceOnUse" gradientTransform="translate(128 128) rotate(90) scale(44)">
      <stop stop-color="#6DA8FF"/>
      <stop offset="0.6" stop-color="#2C66BE"/>
      <stop offset="1" stop-color="#142B66"/>
    </radialGradient>
    <filter id="blurA" x="36" y="16" width="184" height="224" filterUnits="userSpaceOnUse">
      <feGaussianBlur stdDeviation="3.2"/>
    </filter>
  </defs>

  <g filter="url(#blurA)" opacity="0.75">
    <path d="M128 26L194 84L128 230L62 84L128 26Z" fill="rgba(255,255,255,0.18)"/>
    <path d="M128 20L202 90L128 236L54 90L128 20Z" stroke="url(#g1)" stroke-width="4"/>
  </g>

  <path d="M128 42L182 94L128 210L74 94L128 42Z" fill="rgba(255,255,255,0.12)" stroke="url(#g1)" stroke-width="3"/>

  <ellipse cx="128" cy="128" rx="62" ry="44" fill="#F8F9FF" stroke="url(#g1)" stroke-width="3"/>
  <circle cx="128" cy="128" r="36" fill="url(#iris)"/>
  <circle cx="128" cy="128" r="14" fill="#0E1837"/>
  <circle cx="128" cy="128" r="6" fill="#FFD980"/>
  <circle cx="116" cy="116" r="6" fill="#EAF3FF" fill-opacity="0.9"/>
  <circle cx="141" cy="141" r="2.5" fill="#EAF3FF" fill-opacity="0.55"/>
</svg>